<mxfile host="app.diagrams.net" modified="2021-11-10T14:05:16.676Z" agent="5.0 (Windows NT 10.0; Win64; x64) AppleWebKit/537.36 (KHTML, like Gecko) Chrome/95.0.4638.69 Safari/537.36 Edg/95.0.1020.44" etag="UMwQX2ZmuXPy0ZmOn2lx" version="15.5.8" type="github">
  <diagram id="ObhB3Eg-sz1-jFUHdSfY" name="Page-1">
    <mxGraphModel dx="566" dy="339" grid="1" gridSize="10" guides="1" tooltips="1" connect="1" arrows="1" fold="1" page="1" pageScale="1" pageWidth="850" pageHeight="1100" math="0" shadow="0">
      <root>
        <mxCell id="0" />
        <mxCell id="1" parent="0" />
        <mxCell id="nMKlKTDVUxumT9sJgd-1-109" value="" style="shape=cube;whiteSpace=wrap;html=1;boundedLbl=1;backgroundOutline=1;darkOpacity=0.05;darkOpacity2=0.1;rounded=0;shadow=0;strokeColor=#6c8ebf;strokeWidth=1;fillColor=#dae8fc;gradientColor=#7ea6e0;gradientDirection=north;rotation=90;" vertex="1" parent="1">
          <mxGeometry x="505" y="235" width="297.5" height="35" as="geometry" />
        </mxCell>
        <mxCell id="nMKlKTDVUxumT9sJgd-1-110" value="" style="shape=cube;whiteSpace=wrap;html=1;boundedLbl=1;backgroundOutline=1;darkOpacity=0.05;darkOpacity2=0.1;rounded=0;shadow=0;strokeColor=#666666;strokeWidth=1;fillColor=#f5f5f5;gradientColor=#b3b3b3;gradientDirection=north;rotation=90;" vertex="1" parent="1">
          <mxGeometry x="550" y="235" width="297.5" height="35" as="geometry" />
        </mxCell>
        <mxCell id="nMKlKTDVUxumT9sJgd-1-111" value="" style="shape=cube;whiteSpace=wrap;html=1;boundedLbl=1;backgroundOutline=1;darkOpacity=0.05;darkOpacity2=0.1;rounded=0;shadow=0;strokeColor=#996185;strokeWidth=1;fillColor=#e6d0de;gradientColor=#d5739d;gradientDirection=north;rotation=90;" vertex="1" parent="1">
          <mxGeometry x="710" y="222.5" width="53.75" height="35" as="geometry" />
        </mxCell>
        <mxCell id="nMKlKTDVUxumT9sJgd-1-114" value="" style="shape=cube;whiteSpace=wrap;html=1;boundedLbl=1;backgroundOutline=1;darkOpacity=0.05;darkOpacity2=0.1;rounded=0;shadow=0;glass=0;strokeColor=#00331A;strokeWidth=1;fillColor=#d5e8d4;gradientDirection=north;flipH=1;gradientColor=#97d077;" vertex="1" parent="1">
          <mxGeometry x="490" y="190" width="140" height="80" as="geometry" />
        </mxCell>
        <mxCell id="nMKlKTDVUxumT9sJgd-1-91" value="" style="rounded=0;whiteSpace=wrap;html=1;shadow=0;gradientDirection=north;fillColor=default;strokeWidth=1;sketch=0;strokeColor=#67AB9F;gradientColor=#67AB9F;" vertex="1" parent="1">
          <mxGeometry x="375" y="180" width="20" height="200" as="geometry" />
        </mxCell>
        <mxCell id="nMKlKTDVUxumT9sJgd-1-92" value="" style="endArrow=none;html=1;rounded=0;shadow=0;sketch=0;fontColor=none;strokeWidth=2;entryX=0;entryY=0;entryDx=0;entryDy=0;fillColor=#f5f5f5;gradientColor=#b3b3b3;strokeColor=#67AB9F;exitX=0;exitY=0;exitDx=0;exitDy=0;" edge="1" parent="1" source="nMKlKTDVUxumT9sJgd-1-91">
          <mxGeometry x="375" y="99.99999999999989" width="50" height="50" as="geometry">
            <mxPoint x="355" y="140" as="sourcePoint" />
            <mxPoint x="455" y="100" as="targetPoint" />
          </mxGeometry>
        </mxCell>
        <mxCell id="nMKlKTDVUxumT9sJgd-1-93" value="" style="endArrow=none;html=1;rounded=0;shadow=0;sketch=0;fontColor=none;strokeWidth=2;entryX=1;entryY=1;entryDx=0;entryDy=0;exitX=1;exitY=1;exitDx=0;exitDy=0;strokeColor=#67AB9F;" edge="1" parent="1" source="nMKlKTDVUxumT9sJgd-1-91">
          <mxGeometry x="375" y="99.99999999999989" width="50" height="50" as="geometry">
            <mxPoint x="425" y="370" as="sourcePoint" />
            <mxPoint x="475" y="300" as="targetPoint" />
          </mxGeometry>
        </mxCell>
        <mxCell id="nMKlKTDVUxumT9sJgd-1-94" value="" style="endArrow=none;html=1;rounded=0;shadow=0;sketch=0;fontColor=none;strokeWidth=2;entryX=1;entryY=0;entryDx=0;entryDy=0;exitX=1;exitY=0;exitDx=0;exitDy=0;strokeColor=#67AB9F;" edge="1" parent="1" source="nMKlKTDVUxumT9sJgd-1-91">
          <mxGeometry x="375" y="99.99999999999989" width="50" height="50" as="geometry">
            <mxPoint x="375" y="140" as="sourcePoint" />
            <mxPoint x="475" y="99.99999999999989" as="targetPoint" />
          </mxGeometry>
        </mxCell>
        <mxCell id="nMKlKTDVUxumT9sJgd-1-95" value="" style="endArrow=none;html=1;rounded=0;shadow=0;sketch=0;fontColor=none;strokeColor=#67AB9F;strokeWidth=2;" edge="1" parent="1">
          <mxGeometry x="375" y="99.99999999999989" width="50" height="50" as="geometry">
            <mxPoint x="475" y="300" as="sourcePoint" />
            <mxPoint x="475" y="100" as="targetPoint" />
          </mxGeometry>
        </mxCell>
        <mxCell id="nMKlKTDVUxumT9sJgd-1-96" value="" style="endArrow=none;html=1;rounded=0;shadow=0;sketch=0;fontColor=none;strokeColor=#000000;strokeWidth=1;" edge="1" parent="1">
          <mxGeometry x="375" y="99.99999999999989" width="50" height="50" as="geometry">
            <mxPoint x="475" y="300" as="sourcePoint" />
            <mxPoint x="475" y="100" as="targetPoint" />
          </mxGeometry>
        </mxCell>
        <mxCell id="nMKlKTDVUxumT9sJgd-1-97" value="" style="endArrow=none;html=1;rounded=0;shadow=0;sketch=0;fontColor=none;strokeColor=#67AB9F;strokeWidth=1;" edge="1" parent="1">
          <mxGeometry x="375" y="99.99999999999989" width="50" height="50" as="geometry">
            <mxPoint x="455" y="100" as="sourcePoint" />
            <mxPoint x="475" y="100" as="targetPoint" />
          </mxGeometry>
        </mxCell>
        <mxCell id="nMKlKTDVUxumT9sJgd-1-70" value="" style="rounded=0;whiteSpace=wrap;html=1;shadow=0;gradientDirection=north;fillColor=#fff2cc;strokeWidth=1;sketch=0;gradientColor=#ffd966;strokeColor=#331A00;" vertex="1" parent="1">
          <mxGeometry x="160" y="200" width="20" height="200" as="geometry" />
        </mxCell>
        <mxCell id="nMKlKTDVUxumT9sJgd-1-72" value="" style="endArrow=none;html=1;rounded=0;shadow=0;sketch=0;fontColor=none;strokeWidth=2;entryX=0;entryY=0;entryDx=0;entryDy=0;fillColor=#f5f5f5;gradientColor=#b3b3b3;strokeColor=#333300;exitX=0;exitY=0;exitDx=0;exitDy=0;" edge="1" parent="1" source="nMKlKTDVUxumT9sJgd-1-70">
          <mxGeometry x="160" y="119.99999999999989" width="50" height="50" as="geometry">
            <mxPoint x="140" y="160" as="sourcePoint" />
            <mxPoint x="240" y="120" as="targetPoint" />
          </mxGeometry>
        </mxCell>
        <mxCell id="nMKlKTDVUxumT9sJgd-1-74" value="" style="endArrow=none;html=1;rounded=0;shadow=0;sketch=0;fontColor=none;strokeWidth=2;entryX=1;entryY=1;entryDx=0;entryDy=0;exitX=1;exitY=1;exitDx=0;exitDy=0;strokeColor=#333300;" edge="1" parent="1" source="nMKlKTDVUxumT9sJgd-1-70">
          <mxGeometry x="160" y="119.99999999999989" width="50" height="50" as="geometry">
            <mxPoint x="210" y="390" as="sourcePoint" />
            <mxPoint x="260" y="320" as="targetPoint" />
          </mxGeometry>
        </mxCell>
        <mxCell id="nMKlKTDVUxumT9sJgd-1-71" value="" style="endArrow=none;html=1;rounded=0;shadow=0;sketch=0;fontColor=none;strokeWidth=2;entryX=1;entryY=0;entryDx=0;entryDy=0;exitX=1;exitY=0;exitDx=0;exitDy=0;strokeColor=#331A00;" edge="1" parent="1" source="nMKlKTDVUxumT9sJgd-1-70">
          <mxGeometry x="160" y="119.99999999999989" width="50" height="50" as="geometry">
            <mxPoint x="160" y="160" as="sourcePoint" />
            <mxPoint x="260" y="119.99999999999989" as="targetPoint" />
          </mxGeometry>
        </mxCell>
        <mxCell id="nMKlKTDVUxumT9sJgd-1-77" value="" style="endArrow=none;html=1;rounded=0;shadow=0;sketch=0;fontColor=none;strokeColor=#FFFFFF;strokeWidth=2;" edge="1" parent="1">
          <mxGeometry x="160" y="119.99999999999989" width="50" height="50" as="geometry">
            <mxPoint x="260" y="320" as="sourcePoint" />
            <mxPoint x="260" y="120" as="targetPoint" />
          </mxGeometry>
        </mxCell>
        <mxCell id="nMKlKTDVUxumT9sJgd-1-78" value="" style="endArrow=none;html=1;rounded=0;shadow=0;sketch=0;fontColor=none;strokeColor=#333300;strokeWidth=2;" edge="1" parent="1">
          <mxGeometry x="160" y="119.99999999999989" width="50" height="50" as="geometry">
            <mxPoint x="260" y="320" as="sourcePoint" />
            <mxPoint x="260" y="120" as="targetPoint" />
          </mxGeometry>
        </mxCell>
        <mxCell id="nMKlKTDVUxumT9sJgd-1-79" value="" style="endArrow=none;html=1;rounded=0;shadow=0;sketch=0;fontColor=none;strokeColor=#333300;strokeWidth=2;" edge="1" parent="1">
          <mxGeometry x="160" y="119.99999999999989" width="50" height="50" as="geometry">
            <mxPoint x="240" y="120" as="sourcePoint" />
            <mxPoint x="260" y="120" as="targetPoint" />
          </mxGeometry>
        </mxCell>
        <mxCell id="nMKlKTDVUxumT9sJgd-1-83" value="" style="rounded=0;whiteSpace=wrap;html=1;shadow=0;gradientDirection=north;fillColor=default;strokeWidth=1;sketch=0;strokeColor=#67AB9F;gradientColor=#67AB9F;" vertex="1" parent="1">
          <mxGeometry x="270" y="180" width="20" height="200" as="geometry" />
        </mxCell>
        <mxCell id="nMKlKTDVUxumT9sJgd-1-84" value="" style="endArrow=none;html=1;rounded=0;shadow=0;sketch=0;fontColor=none;strokeWidth=2;entryX=0;entryY=0;entryDx=0;entryDy=0;fillColor=#f5f5f5;gradientColor=#b3b3b3;strokeColor=#67AB9F;exitX=0;exitY=0;exitDx=0;exitDy=0;" edge="1" parent="1" source="nMKlKTDVUxumT9sJgd-1-83">
          <mxGeometry x="430" y="219.99999999999977" width="50" height="50" as="geometry">
            <mxPoint x="250" y="140" as="sourcePoint" />
            <mxPoint x="350" y="100" as="targetPoint" />
          </mxGeometry>
        </mxCell>
        <mxCell id="nMKlKTDVUxumT9sJgd-1-85" value="" style="endArrow=none;html=1;rounded=0;shadow=0;sketch=0;fontColor=none;strokeWidth=2;entryX=1;entryY=1;entryDx=0;entryDy=0;exitX=1;exitY=1;exitDx=0;exitDy=0;strokeColor=#67AB9F;" edge="1" parent="1" source="nMKlKTDVUxumT9sJgd-1-83">
          <mxGeometry x="430" y="219.99999999999977" width="50" height="50" as="geometry">
            <mxPoint x="320" y="370" as="sourcePoint" />
            <mxPoint x="370" y="300" as="targetPoint" />
          </mxGeometry>
        </mxCell>
        <mxCell id="nMKlKTDVUxumT9sJgd-1-86" value="" style="endArrow=none;html=1;rounded=0;shadow=0;sketch=0;fontColor=none;strokeWidth=2;entryX=1;entryY=0;entryDx=0;entryDy=0;exitX=1;exitY=0;exitDx=0;exitDy=0;strokeColor=#67AB9F;" edge="1" parent="1" source="nMKlKTDVUxumT9sJgd-1-83">
          <mxGeometry x="430" y="219.99999999999977" width="50" height="50" as="geometry">
            <mxPoint x="270" y="140" as="sourcePoint" />
            <mxPoint x="370" y="99.99999999999989" as="targetPoint" />
          </mxGeometry>
        </mxCell>
        <mxCell id="nMKlKTDVUxumT9sJgd-1-87" value="" style="endArrow=none;html=1;rounded=0;shadow=0;sketch=0;fontColor=none;strokeColor=#FFFFFF;strokeWidth=2;" edge="1" parent="1">
          <mxGeometry x="430" y="219.99999999999977" width="50" height="50" as="geometry">
            <mxPoint x="370" y="300" as="sourcePoint" />
            <mxPoint x="370" y="100" as="targetPoint" />
          </mxGeometry>
        </mxCell>
        <mxCell id="nMKlKTDVUxumT9sJgd-1-88" value="" style="endArrow=none;html=1;rounded=0;shadow=0;sketch=0;fontColor=none;strokeColor=#67AB9F;strokeWidth=2;" edge="1" parent="1">
          <mxGeometry x="430" y="219.99999999999977" width="50" height="50" as="geometry">
            <mxPoint x="370" y="300" as="sourcePoint" />
            <mxPoint x="370" y="100" as="targetPoint" />
          </mxGeometry>
        </mxCell>
        <mxCell id="nMKlKTDVUxumT9sJgd-1-89" value="" style="endArrow=none;html=1;rounded=0;shadow=0;sketch=0;fontColor=none;strokeColor=#67AB9F;strokeWidth=1;" edge="1" parent="1">
          <mxGeometry x="430" y="219.99999999999977" width="50" height="50" as="geometry">
            <mxPoint x="350" y="100" as="sourcePoint" />
            <mxPoint x="370" y="100" as="targetPoint" />
          </mxGeometry>
        </mxCell>
      </root>
    </mxGraphModel>
  </diagram>
</mxfile>
